<svg xmlns="http://www.w3.org/2000/svg" xmlns:xlink="http://www.w3.org/1999/xlink" style="margin:auto;background:#5cdb95;display:block;z-index:1;position:relative" width="1366" height="768" preserveAspectRatio="xMidYMid" viewBox="0 0 1366 768">
<g transform=""><g transform="translate(971.3379865589382,201.01514951467263) scale(100)" opacity="0.45000000000000007">
  <path d="M3.329625 0 C3.329625 0.9903500000000002 3.5265886727719544 0.8925192413620805 3.0314136727719543 1.7501874999999996 S2.5224807586379194 2.388364835075761 1.6648125000000005 2.8835398350757613 S0.9903500000000004 3.5003749999999996 2.143361519782708e-16 3.5003749999999996 S-0.8071442413620803 3.3787148350757614 -1.6648124999999994 2.8835398350757617 S-2.536238672771953 2.60785575863792 -3.0314136727719534 1.750187500000001 S-3.329625 0.9903500000000006 -3.329625 4.077614598611006e-16 S-3.5265886727719544 -0.8925192413620797 -3.0314136727719547 -1.750187499999999 S-2.5224807586379203 -2.3883648350757603 -1.6648125000000016 -2.883539835075761 S-0.9903500000000008 -3.5003749999999996 -6.430084559348124e-16 -3.5003749999999996 S0.8071442413620784 -3.3787148350757623 1.6648124999999978 -2.883539835075763 S2.5362386727719524 -2.6078557586379203 3.031413672771953 -1.7501875000000013 S3.3296249999999996 -0.990350000000001 3.329625 -8.155229197222012e-16" fill="#379683" stroke-width="0">
    <animateTransform attributeName="transform" type="rotate" dur="8.333333333333332s" repeatCount="indefinite" values="0;60"></animateTransform>
  </path>
</g><g transform="translate(1029.0055838707258,164.41817941760718) scale(100)" opacity="0.45000000000000007">
  <path d="M3.9955499999999997 0 C3.9955499999999997 1.18842 4.231906407326345 1.0710230896344966 3.6376964073263447 2.100224999999999 S3.026976910365503 2.866037802090913 1.9977750000000003 3.4602478020909135 S1.1884200000000003 4.200449999999999 2.5720338237392494e-16 4.200449999999999 S-0.9685730896344964 4.054457802090914 -1.997774999999999 3.460247802090914 S-3.0434864073263435 3.1294269103655035 -3.637696407326344 2.100225000000001 S-3.9955499999999997 1.1884200000000005 -3.9955499999999997 4.893137518333207e-16 S-4.231906407326345 -1.0710230896344954 -3.637696407326345 -2.1002249999999982 S-3.026976910365504 -2.8660378020909123 -1.9977750000000016 -3.460247802090913 S-1.1884200000000007 -4.200449999999999 -7.716101471217747e-16 -4.200449999999999 S0.9685730896344942 -4.054457802090915 1.9977749999999972 -3.4602478020909153 S3.043486407326343 -3.1294269103655035 3.6376964073263434 -2.1002250000000013 S3.9955499999999993 -1.188420000000001 3.9955499999999997 -9.786275036666414e-16" fill="#006983" stroke-width="0">
    <animateTransform attributeName="transform" type="rotate" dur="4.166666666666666s" repeatCount="indefinite" values="0;60"></animateTransform>
  </path>
</g><g transform="translate(1167.407817419016,76.58545118465003) scale(100)" opacity="0.45000000000000007">
  <path d="M5.59377 0 C5.59377 1.6637880000000003 5.924668970256884 1.4994323254882955 5.092774970256884 2.9403149999999996 S4.237767674511704 4.012452922927279 2.7968850000000005 4.844346922927279 S1.6637880000000007 5.88063 3.60084735323495e-16 5.88063 S-1.3560023254882947 5.67624092292728 -2.7968849999999987 4.84434692292728 S-4.260880970256881 4.381197674511705 -5.092774970256882 2.940315000000002 S-5.59377 1.663788000000001 -5.59377 6.85039252566649e-16 S-5.924668970256883 -1.4994323254882942 -5.092774970256884 -2.9403149999999982 S-4.237767674511707 -4.012452922927277 -2.7968850000000027 -4.844346922927278 S-1.6637880000000014 -5.88063 -1.0802542059704849e-15 -5.88063 S1.356002325488292 -5.676240922927281 2.7968849999999965 -4.844346922927282 S4.26088097025688 -4.381197674511706 5.092774970256881 -2.9403150000000027 S5.59377 -1.6637880000000016 5.59377 -1.370078505133298e-15" fill="#05386b" stroke-width="0">
    <animateTransform attributeName="transform" type="rotate" dur="2.7777777777777772s" repeatCount="indefinite" values="0;60"></animateTransform>
  </path>
</g></g>
</svg>