<svg xmlns="http://www.w3.org/2000/svg" xmlns:xlink="http://www.w3.org/1999/xlink" style="margin:auto;background:rgba(241, 242, 243, 0);display:block;z-index:1;position:relative" width="1600" height="768" preserveAspectRatio="xMidYMid" viewBox="0 0 1600 768">
<g transform=""><g transform="translate(1242.4868069303866,40.77204995433323) scale(100)" opacity="0.4">
  <path d="M5.4319999999999995 0 C5.4319999999999995 1.2879999999999998 5.639234529028642 1.7685592799256427 4.995234529028642 2.8839999999999995 S3.831440720074357 4.06024999335707 2.716 4.70424999335707 S1.2880000000000003 5.768 3.5318813687409667e-16 5.768 S-1.6005592799256416 5.3482499933570695 -2.7159999999999984 4.70424999335707 S-4.351234529028641 3.9994407200743582 -4.995234529028641 2.8840000000000017 S-5.4319999999999995 1.2880000000000005 -5.4319999999999995 6.652281412968422e-16 S-5.639234529028642 -1.768559279925641 -4.995234529028643 -2.883999999999998 S-3.8314407200743585 -4.060249993357069 -2.716000000000002 -4.704249993357069 S-1.288000000000001 -5.768 -1.05956441062229e-15 -5.768 S1.600559279925639 -5.348249993357071 2.715999999999996 -4.704249993357072 S4.35123452902864 -3.999440720074359 4.99523452902864 -2.8840000000000026 S5.4319999999999995 -1.2880000000000011 5.4319999999999995 -1.3304562825936843e-15" fill="#05386b" stroke-width="0">
    <animateTransform attributeName="transform" type="rotate" dur="10s" repeatCount="indefinite" values="0;60"></animateTransform>
  </path>
</g><g transform="translate(1330.984168316464,-27.873540054800117) scale(100)" opacity="0.4">
  <path d="M6.5184 0 C6.5184 1.5455999999999999 6.767081434834371 2.122271135910771 5.994281434834371 3.4607999999999994 S4.597728864089229 4.872299992028484 3.2592000000000008 5.645099992028484 S1.5456000000000003 6.9216 4.2382576424891597e-16 6.9216 S-1.9206711359107702 6.4178999920284845 -3.2591999999999985 5.645099992028485 S-5.221481434834369 4.79932886408923 -5.994281434834369 3.460800000000002 S-6.5184 1.5456000000000008 -6.5184 7.982737695562107e-16 S-6.76708143483437 -2.1222711359107693 -5.994281434834371 -3.460799999999998 S-4.597728864089231 -4.872299992028482 -3.259200000000003 -5.6450999920284834 S-1.5456000000000012 -6.9216 -1.2714772927467478e-15 -6.9216 S1.9206711359107667 -6.417899992028486 3.2591999999999954 -5.645099992028487 S5.221481434834368 -4.799328864089231 5.9942814348343685 -3.460800000000003 S6.5184 -1.5456000000000014 6.5184 -1.5965475391124214e-15" fill="#006983" stroke-width="0">
    <animateTransform attributeName="transform" type="rotate" dur="5s" repeatCount="indefinite" values="0;60"></animateTransform>
  </path>
</g><g transform="translate(1543.3778356430494,-192.62295607672013) scale(100)" opacity="0.4">
  <path d="M9.12576 0 C9.12576 2.1638399999999995 9.47391400876812 2.9711795902750793 8.391994008768119 4.845119999999999 S6.43682040972492 6.821219988839878 4.562880000000001 7.903139988839878 S2.16384 9.69024 5.933560699484823e-16 9.69024 S-2.6889395902750786 8.985059988839879 -4.562879999999998 7.903139988839879 S-7.310074008768117 6.719060409724922 -8.391994008768117 4.845120000000003 S-9.12576 2.163840000000001 -9.12576 1.117583277378695e-15 S-9.473914008768118 -2.971179590275077 -8.391994008768119 -4.845119999999997 S-6.436820409724923 -6.821219988839877 -4.562880000000004 -7.903139988839877 S-2.1638400000000013 -9.69024 -1.780068209845447e-15 -9.69024 S2.6889395902750737 -8.98505998883988 4.562879999999994 -7.903139988839882 S7.310074008768115 -6.719060409724923 8.391994008768116 -4.845120000000004 S9.12576 -2.1638400000000018 9.12576 -2.23516655475739e-15" fill="#379683" stroke-width="0">
    <animateTransform attributeName="transform" type="rotate" dur="3.333333333333333s" repeatCount="indefinite" values="0;60"></animateTransform>
  </path>
</g></g>
</svg>