<svg xmlns="http://www.w3.org/2000/svg" xmlns:xlink="http://www.w3.org/1999/xlink" style="margin:auto;background:#5cdb95;display:block;z-index:1;position:relative" width="1920" height="1080" preserveAspectRatio="xMidYMid" viewBox="0 0 1920 1080">
<g transform=""><g transform="translate(1490.984168316464,128.12645994519988) scale(100)" opacity="0.45000000000000007">
  <path d="M6.552 0 C6.552 2.0159999999999996 6.973182981267213 1.698092785970571 5.965182981267213 3.443999999999999 S5.0219072140294285 4.666198445595641 3.2760000000000007 5.674198445595641 S2.016 6.887999999999999 4.217683576263484e-16 6.887999999999999 S-1.5300927859705704 6.682198445595641 -3.2759999999999985 5.674198445595642 S-4.957182981267211 5.18990721402943 -5.965182981267211 3.4440000000000017 S-6.552 2.0160000000000005 -6.552 8.023885828013458e-16 S-6.973182981267213 -1.6980927859705695 -5.965182981267214 -3.4439999999999977 S-5.02190721402943 -4.66619844559564 -3.276000000000003 -5.674198445595641 S-2.016000000000001 -6.887999999999999 -1.265305072879045e-15 -6.887999999999999 S1.5300927859705666 -6.682198445595643 3.2759999999999954 -5.6741984455956445 S4.95718298126721 -5.1899072140294304 5.965182981267211 -3.4440000000000026 S6.551999999999999 -2.0160000000000013 6.552 -1.6047771656026916e-15" fill="#379683" stroke-width="0">
    <animateTransform attributeName="transform" type="rotate" dur="8.333333333333332s" repeatCount="indefinite" values="0;60"></animateTransform>
  </path>
</g><g transform="translate(1597.1810019797567,45.75175193423985) scale(100)" opacity="0.45000000000000007">
  <path d="M7.8624 0 C7.8624 2.4191999999999996 8.367819577520656 2.037711343164685 7.158219577520656 4.132799999999999 S6.026288656835314 5.59943813471477 3.931200000000001 6.80903813471477 S2.4192 8.2656 5.061220291516181e-16 8.2656 S-1.8361113431646845 8.01863813471477 -3.9311999999999983 6.809038134714771 S-5.948619577520653 6.227888656835315 -7.158219577520654 4.132800000000002 S-7.8624 2.4192000000000005 -7.8624 9.62866299361615e-16 S-8.367819577520656 -2.0377113431646827 -7.158219577520657 -4.132799999999997 S-6.026288656835317 -5.599438134714768 -3.9312000000000036 -6.809038134714769 S-2.419200000000001 -8.2656 -1.518366087454854e-15 -8.2656 S1.83611134316468 -8.018638134714772 3.9311999999999947 -6.809038134714774 S5.9486195775206525 -6.227888656835316 7.158219577520653 -4.132800000000003 S7.862399999999999 -2.4192000000000013 7.8624 -1.92573259872323e-15" fill="#006983" stroke-width="0">
    <animateTransform attributeName="transform" type="rotate" dur="4.166666666666666s" repeatCount="indefinite" values="0;60"></animateTransform>
  </path>
</g><g transform="translate(1852.0534027716594,-151.9475472920641) scale(100)" opacity="0.45000000000000007">
  <path d="M11.007359999999998 0 C11.007359999999998 3.386879999999999 11.714947408528916 2.8527958804305595 10.021507408528917 5.785919999999998 S8.436804119569437 7.839213388600677 5.50368 9.532653388600677 S3.3868799999999997 11.571839999999998 7.085708408122653e-16 11.571839999999998 S-2.570555880430558 11.226093388600678 -5.503679999999997 9.532653388600679 S-8.328067408528915 8.71904411956944 -10.021507408528915 5.785920000000003 S-11.007359999999998 3.38688 -11.007359999999998 1.3480128191062607e-15 S-11.714947408528918 -2.8527958804305564 -10.021507408528919 -5.7859199999999955 S-8.436804119569443 -7.839213388600674 -5.503680000000005 -9.532653388600675 S-3.386880000000001 -11.571839999999998 -2.1257125224367956e-15 -11.571839999999998 S2.570555880430552 -11.22609338860068 5.503679999999992 -9.532653388600682 S8.328067408528913 -8.719044119569443 10.021507408528914 -5.785920000000004 S11.007359999999998 -3.3868800000000014 11.007359999999998 -2.6960256382125214e-15" fill="#05386b" stroke-width="0">
    <animateTransform attributeName="transform" type="rotate" dur="2.7777777777777772s" repeatCount="indefinite" values="0;60"></animateTransform>
  </path>
</g></g>
</svg>