<?xml version="1.0" encoding="utf-8"?>
<svg width="1490px" height="687px" viewBox="0 0 1490 687" version="1.1" xmlns:xlink="http://www.w3.org/1999/xlink" xmlns="http://www.w3.org/2000/svg">
  <desc>Created with Lunacy</desc>
  <g id="Logo">
    <path d="M7.999 0L1482 0Q1482.2 0 1482.39 0.00963514Q1482.59 0.0192703 1482.79 0.0385174Q1482.98 0.0577644 1483.17 0.0865771Q1483.37 0.11539 1483.56 0.153699Q1483.75 0.192007 1483.94 0.23972Q1484.14 0.287433 1484.32 0.344434Q1484.51 0.401436 1484.7 0.467589Q1484.88 0.533742 1485.06 0.608888Q1485.24 0.684033 1485.42 0.76799Q1485.6 0.851946 1485.77 0.944512Q1485.94 1.03708 1486.11 1.13803Q1486.28 1.23898 1486.44 1.34807Q1486.61 1.45717 1486.77 1.57414Q1486.92 1.69112 1487.08 1.81569Q1487.23 1.94026 1487.37 2.07213Q1487.52 2.204 1487.66 2.34285Q1487.8 2.4817 1487.93 2.6272Q1488.06 2.7727 1488.18 2.92449Q1488.31 3.07628 1488.43 3.234Q1488.54 3.39172 1488.65 3.55499Q1488.76 3.71826 1488.86 3.88669Q1488.96 4.05512 1489.06 4.2283Q1489.15 4.40148 1489.23 4.57899Q1489.32 4.7565 1489.39 4.93791Q1489.47 5.11933 1489.53 5.30422Q1489.6 5.4891 1489.66 5.67701Q1489.71 5.86492 1489.76 6.0554Q1489.81 6.24588 1489.85 6.43847Q1489.88 6.63106 1489.91 6.8253Q1489.94 7.01954 1489.96 7.21496Q1489.98 7.41038 1489.99 7.60651Q1490 7.80264 1490 7.999L1490 679.001Q1490 679.197 1489.99 679.393Q1489.98 679.59 1489.96 679.785Q1489.94 679.98 1489.91 680.175Q1489.88 680.369 1489.85 680.561Q1489.81 680.754 1489.76 680.945Q1489.71 681.135 1489.66 681.323Q1489.6 681.511 1489.53 681.696Q1489.47 681.881 1489.39 682.062Q1489.32 682.243 1489.23 682.421Q1489.15 682.598 1489.06 682.772Q1488.96 682.945 1488.86 683.113Q1488.76 683.282 1488.65 683.445Q1488.54 683.608 1488.43 683.766Q1488.31 683.924 1488.18 684.076Q1488.06 684.227 1487.93 684.373Q1487.8 684.518 1487.66 684.657Q1487.52 684.796 1487.37 684.928Q1487.23 685.06 1487.08 685.184Q1486.92 685.309 1486.77 685.426Q1486.61 685.543 1486.44 685.652Q1486.28 685.761 1486.11 685.862Q1485.94 685.963 1485.77 686.055Q1485.6 686.148 1485.42 686.232Q1485.24 686.316 1485.06 686.391Q1484.88 686.466 1484.7 686.532Q1484.51 686.598 1484.32 686.655Q1484.14 686.712 1483.94 686.76Q1483.75 686.808 1483.56 686.846Q1483.37 686.885 1483.17 686.913Q1482.98 686.942 1482.79 686.961Q1482.59 686.981 1482.39 686.99Q1482.2 687 1482 687L7.999 687Q7.80264 687 7.60651 686.99Q7.41038 686.981 7.21496 686.961Q7.01954 686.942 6.8253 686.913Q6.63106 686.885 6.43847 686.846Q6.24588 686.808 6.0554 686.76Q5.86492 686.712 5.67701 686.655Q5.4891 686.598 5.30422 686.532Q5.11933 686.466 4.93791 686.391Q4.7565 686.316 4.57899 686.232Q4.40148 686.148 4.2283 686.055Q4.05512 685.963 3.88669 685.862Q3.71826 685.761 3.55499 685.652Q3.39172 685.543 3.234 685.426Q3.07628 685.309 2.92449 685.184Q2.7727 685.06 2.6272 684.928Q2.4817 684.796 2.34285 684.657Q2.204 684.518 2.07213 684.373Q1.94026 684.227 1.81569 684.075Q1.69112 683.924 1.57414 683.766Q1.45717 683.608 1.34807 683.445Q1.23898 683.282 1.13803 683.113Q1.03708 682.945 0.944512 682.772Q0.851946 682.598 0.76799 682.421Q0.684033 682.243 0.608888 682.062Q0.533742 681.881 0.467589 681.696Q0.401436 681.511 0.344434 681.323Q0.287433 681.135 0.23972 680.945Q0.192007 680.754 0.153699 680.561Q0.11539 680.369 0.0865771 680.175Q0.0577644 679.98 0.0385174 679.785Q0.0192703 679.59 0.00963514 679.393Q0 679.197 0 679.001L0 7.999Q0 7.80264 0.00963514 7.60651Q0.0192703 7.41038 0.0385174 7.21496Q0.0577644 7.01954 0.0865771 6.8253Q0.11539 6.63106 0.153699 6.43847Q0.192007 6.24588 0.23972 6.0554Q0.287433 5.86492 0.344434 5.67701Q0.401436 5.4891 0.467589 5.30422Q0.533742 5.11933 0.608888 4.93791Q0.684033 4.7565 0.76799 4.57899Q0.851946 4.40148 0.944512 4.2283Q1.03708 4.05512 1.13803 3.88669Q1.23898 3.71826 1.34807 3.55499Q1.45717 3.39172 1.57414 3.234Q1.69112 3.07628 1.81569 2.92449Q1.94026 2.7727 2.07213 2.6272Q2.204 2.4817 2.34285 2.34285Q2.4817 2.204 2.6272 2.07213Q2.7727 1.94026 2.92449 1.81569Q3.07628 1.69112 3.234 1.57414Q3.39172 1.45717 3.55499 1.34807Q3.71826 1.23898 3.88669 1.13803Q4.05512 1.03708 4.2283 0.944512Q4.40148 0.851946 4.57899 0.76799Q4.7565 0.684033 4.93791 0.608888Q5.11933 0.533742 5.30422 0.467589Q5.4891 0.401436 5.67701 0.344434Q5.86492 0.287433 6.0554 0.23972Q6.24588 0.192007 6.43847 0.153699Q6.63106 0.11539 6.8253 0.0865771Q7.01954 0.0577644 7.21496 0.0385174Q7.41038 0.0192703 7.60651 0.00963514Q7.80264 0 7.999 0L7.999 0Z" id="Rectangle" fill="#05386B" stroke="none" />
    <g fill="#5CDB95" stroke="none" id="HMZ" transform="translate(319.5 130)">
      <path d="M253.75 91L253.75 336L197.05 336L197.05 235.55L85.75 235.55L85.75 336L29.05 336L29.05 91L85.75 91L85.75 187.6L197.05 187.6L197.05 91L253.75 91ZM534.8 336L534.45 189L462.35 310.1L436.8 310.1L365.05 192.15L365.05 336L311.85 336L311.85 91L358.75 91L450.45 243.25L540.75 91L587.3 91L588 336L534.8 336ZM844.55 336L844.55 289.8L705.25 289.8L839.3 127.75L839.3 91L633.15 91L633.15 137.2L764.75 137.2L630.35 299.25L630.35 336L844.55 336Z" />
    </g>
  </g>
</svg>