<?xml version="1.0" encoding="utf-8"?>
<svg width="798px" height="815px" viewBox="0 0 798 815" version="1.1" xmlns:xlink="http://www.w3.org/1999/xlink" xmlns="http://www.w3.org/2000/svg">
  <desc>Created with Lunacy</desc>
  <defs>
    <path d="M0 0L797.46 0L797.46 814.59L0 814.59L0 0Z" id="path_1" />
    <clipPath id="mask_1">
      <use xlink:href="#path_1" />
    </clipPath>
  </defs>
  <g id="error-404-colour">
    <path d="M0 0L797.46 0L797.46 814.59L0 814.59L0 0Z" id="Background" fill="none" fill-rule="evenodd" stroke="none" />
    <g clip-path="url(#mask_1)">
      <g id="Layer_2" transform="translate(0 0.028671265)">
        <g id="vector">
          <path d="M554.868 94.6413C599.868 135.071 629.318 191.481 676.598 272.561C724.098 353.641 789.598 459.381 764.758 522.421C739.919 585.461 624.298 605.781 515.128 647.121C405.958 688.461 303.178 750.581 208.628 738.471C114.078 726.361 27.7584 640.041 6.04842 544.571C-15.8816 448.871 26.5984 344.041 57.1984 248.571C87.5784 153.111 106.078 66.9713 159.288 27.9713C212.498 -11.0287 300.438 -2.64868 374.898 13.5613C449.348 29.9713 509.868 54.2213 554.868 94.6413L554.868 94.6413Z" transform="translate(27.241577 0)" id="Shape" fill="#EDF5E1" fill-rule="evenodd" stroke="none" />
          <path d="M171.08 162.26L139.78 162.26L139.78 199.33L93.89 199.33L93.89 162.26L0 162.26L0 148.26L108.48 0L139.78 0L139.78 122.76L171.08 122.76L171.08 162.26ZM93.89 122.76L93.89 76.57L61.08 122.76L93.89 122.76Z" transform="translate(0 612.49133)" id="Shape" fill="#05386B" fill-rule="evenodd" stroke="none" />
          <path d="M0 102.71C0 45.28 16.71 0 75 0C133 0 149.14 45.28 149.14 102.71C149.14 159.84 133.04 204.81 75 204.81C16.71 204.81 0 159.84 0 102.71L0 102.71ZM103.31 102.71C103.31 68.07 96.62 41.33 75.05 41.33C53.17 41.33 45.58 68.07 45.58 102.71C45.58 137.04 53.17 163.18 75.05 163.18C96.62 163.22 103.31 137.04 103.31 102.71L103.31 102.71Z" transform="translate(197.21002 609.7513)" id="Shape" fill="#05386B" fill-rule="evenodd" stroke="none" />
          <path d="M171.1 162.26L139.8 162.26L139.8 199.33L93.92 199.33L93.92 162.26L0 162.26L0 148.26L108.5 0L139.8 0L139.8 122.76L171.1 122.76L171.1 162.26ZM93.92 122.76L93.92 76.57L61.1 122.76L93.92 122.76Z" transform="translate(364 612.49133)" id="Shape" fill="#05386B" fill-rule="evenodd" stroke="none" />
          <path d="M17.01 14.4L0 14.4L0 0L17.01 0L17.01 14.4Z" transform="translate(536.7399 761.27136)" id="Rectangle" fill="#DE8E68" fill-rule="evenodd" stroke="none" />
          <path d="M40.47 0L40.47 14.4L0 14.4L0 9.15997L21.05 0L40.47 0L40.47 0Z" transform="translate(514.88 773.4213)" id="Polygon" fill="#000000" fill-rule="evenodd" stroke="none" />
          <path d="M17.01 14.4L0 14.4L0 0L17.01 0L17.01 14.4Z" transform="translate(272.33997 584.6213)" id="Rectangle" fill="#DE8E68" fill-rule="evenodd" stroke="none" />
          <path d="M40.46 0L40.46 14.4L0 14.4L0 9.16998L21.05 0L40.46 0L40.46 0Z" transform="translate(250.48999 596.7713)" id="Polygon" fill="#000000" fill-rule="evenodd" stroke="none" />
          <path d="M92.05 0C92.91 8.17999 110.98 360.89 110.98 360.89L92.05 360.89L0 28.79L92.05 0Z" transform="translate(444.09998 404.18127)" id="Shape" fill="#379683" fill-rule="evenodd" stroke="none" />
          <path d="M278.53 30.4656C278.53 78.3656 260.92 121.466 225.27 121.466C176.33 121.466 111.54 90.2656 93.71 72.6556C89.26 85.8156 26.14 251.576 26.14 251.576L0 251.576C0 251.576 16.75 58.5756 48.15 9.07562C58.48 -4.68439 142.78 -1.24438 185.37 9.07562C227.96 19.3956 278.53 30.4656 278.53 30.4656L278.53 30.4656Z" transform="translate(267.33997 334.8557)" id="Shape" fill="#379683" fill-rule="evenodd" stroke="none" />
          <path d="M7.06998 4.94143C7.68399 1.87843 10.4968 -0.237617 13.61 0.0214233C17.44 0.29142 23.7 10.4114 23.7 18.6014C23.7 26.7914 21.39 29.8714 22.09 35.8214C22.79 41.7714 37.94 122.451 37.94 127.371C41.76 127.641 55.43 125.731 55.43 125.731L45.86 164.271L18 164.271L0 9.04143L7.06998 4.94143Z" transform="translate(412.39 81.2899)" id="Shape" fill="#D37C59" fill-rule="evenodd" stroke="none" />
          <path d="M72.1767 23.7976L66.3067 47.5176C66.3067 47.5176 8.39667 40.7876 2.07666 39.2276C-4.24335 37.6676 5.27667 -1.55238 11.7667 0.0476227C18.2567 1.64762 72.1767 23.7976 72.1767 23.7976L72.1767 23.7976Z" transform="translate(374.0033 76.17369)" id="Shape" fill="#000000" fill-rule="evenodd" stroke="none" />
          <path d="M63.1346 0C137.215 0 118.945 191.39 110.295 198.55C101.645 205.71 9.54459 181.55 1.89459 170.89C-5.7554 160.23 8.80463 0 63.1346 0L63.1346 0Z" transform="translate(436.10535 170.14131)" id="Shape" fill="#8EE4AF" fill-rule="evenodd" stroke="none" />
          <path d="M72.8068 141.76C68.7368 143.14 44.8668 152.45 44.8668 152.45C44.4668 147.65 26.1168 52.45 24.9868 46.62C27.3026 40.801 28.4478 34.5823 28.3568 28.32C28.3568 12.69 22.0068 0 14.1768 0C6.3468 0 0.0067749 12.69 0.0067749 28.32C-0.10437 34.8618 1.15601 41.3546 3.70673 47.3799C2.82678 59.28 -5.07321 172.27 11.0468 188.38C28.0468 205.38 69.3768 190.05 94.4968 178.63C99.8768 176.77 92.5468 136.42 72.8068 141.76L72.8068 141.76Z" transform="translate(399.99323 76.97133)" id="Shape" fill="#DE8E68" fill-rule="evenodd" stroke="none" />
          <path d="M2.77927 0L17.7602 3.97771L14.9809 14.445L0 10.4673L2.77927 0Z" transform="translate(437.31433 105.79195)" id="Rectangle" fill="#000000" fill-rule="evenodd" stroke="none" />
          <path d="M74.8373 10.3813C86.1273 32.3013 41.4173 71.7913 29.0473 68.8513C16.6772 65.9113 -3.27274 21.7713 0.457275 13.8513C4.18729 5.93127 63.8572 -10.9487 74.8373 10.3813L74.8373 10.3813Z" transform="translate(471.61273 194.92006)" id="Shape" fill="#8EE4AF" fill-rule="evenodd" stroke="none" />
          <path d="M22.63 42.72C22.63 46.43 0 47.37 0 42.72L0 0L22.63 0L22.63 42.72Z" transform="translate(481.15002 145.97133)" id="Shape" fill="#D37C59" fill-rule="evenodd" stroke="none" />
          <path d="M0 47.77C0 21.3874 13.2255 0 29.54 0C45.8545 0 59.08 21.3874 59.08 47.77C59.08 74.1526 45.8545 95.54 29.54 95.54C13.2255 95.54 0 74.1526 0 47.77Z" transform="translate(454.75 75.23131)" id="Ellipse" fill="#DC8E6C" fill-rule="evenodd" stroke="none" />
          <path d="M9.53992 53.86C9.08179 60.8455 12.4266 67.5352 18.2899 71.36C27.0999 77.36 33.3799 74.71 39.8399 80.36C43.2499 83.77 51.5999 90.36 51.6799 100.54C51.6799 108.07 54.1499 111.87 56.3199 111.87C58.4899 111.87 64.2099 110.37 67.8899 110.37C104.03 110.37 146.47 147.68 227.89 147.68C270.42 147.68 337.16 136.95 337.16 74.49C337.16 40.76 325.02 0 260.85 0C220.1 0 191.55 20 158.07 20C115.07 20 98.49 4.43 68.78 4.43C47.62 4.43 0 16.69 0 48.81C0 61.01 3.82001 64.55 5 65.18C5.37991 63.84 7.7099 56.92 9.53992 53.86L9.53992 53.86Z" transform="translate(452.62012 37.491318)" id="Shape" fill="#000000" fill-rule="evenodd" stroke="none" />
          <path d="M0 7.54C0 3.37577 3.37577 0 7.54 0C11.7042 0 15.08 3.37577 15.08 7.54C15.08 11.7042 11.7042 15.08 7.54 15.08C3.37577 15.08 0 11.7042 0 7.54Z" transform="translate(493.71997 126.77132)" id="Circle" fill="#DC8E6C" fill-rule="evenodd" stroke="none" />
        </g>
      </g>
    </g>
  </g>
</svg>